# xmcd
#
# Track frame offsets: 
#        150
#        15271
#        29324
#        42769
#        56620
#        71691
#        87649
#        99826
#        114851
#        127960
#        142938
#        156402
#        169058
#        182592
#        195102
#        208179
#        220327
#        235467
#        249239
#        262933
#        275708
#        289568
#        303199
#        317563
#        330713
#        344006
#
# Disc length: 4766 seconds
#
# Revision: 0
# Processed by: cddbd v1.5.2PL0 Copyright (c) Steve Scherf et al.
# Submitted via: ExactAudioCopy v0.99pb5
#
DISCID=6c129c1a
DTITLE=Fats Waller  - The Complete Recorded Works, Vol.1 [CD1]  FLA
DTITLE=C
DYEAR=1900
DGENRE=
TTITLE0=Muscle Shoals Blues
TTITLE1=Birmingham Blues
TTITLE2='Tain't Nobody's Bus'ness If I Do
TTITLE3=You Got Ev'rything A Sweet Mama Needs But Me
TTITLE4=Mama's Got The Blues
TTITLE5=Last Go Round Blues
TTITLE6=Stingaree Blues
TTITLE7=You Can't Do What My Last Man Did
TTITLE8=Sister Kate
TTITLE9=You Can't Do What My Last Man Did
TTITLE10=Trixie Blues
TTITLE11=I'm Cert'ny Gonna See 'Bout That
TTITLE12=Squabbling Blues
TTITLE13=In Harlem's Araby
TTITLE14=You Don't Know My Mind Blues
TTITLE15=West Indies Blues
TTITLE16=Maybe Someday
TTITLE17=(I'm Gonna See You) When Your Troubles Are Just Like Mine
TTITLE18=You Get Mad
TTITLE19=What's The Matter Now?
TTITLE20=Nobody Knows De Trouble I See
TTITLE21=Couldn't Hear Nobody Pray
TTITLE22=Ain't Got Nobody To Grind Ma Coffee
TTITLE23=Mama's Losin' A Mighty Good Chance
TTITLE24=The Henderson Stomp
TTITLE25=The Chant
EXTD=
EXTT0=
EXTT1=
EXTT2=
EXTT3=
EXTT4=
EXTT5=
EXTT6=
EXTT7=
EXTT8=
EXTT9=
EXTT10=
EXTT11=
EXTT12=
EXTT13=
EXTT14=
EXTT15=
EXTT16=
EXTT17=
EXTT18=
EXTT19=
EXTT20=
EXTT21=
EXTT22=
EXTT23=
EXTT24=
EXTT25=
PLAYORDER=
